<svg xmlns="http://www.w3.org/2000/svg" width="114.289" height="111.1" viewBox="0 0 30.239057 29.395209" id="svg8"><g id="layer1" transform="translate(-130.048 -131.868)"><g id="g3745" transform="matrix(.26458 0 0 .26458 130.048 131.868)"><path id="path3715" d="M35.4 25.8h-8.3v10.5h8.3c4 0 6.5-2 6.5-5.2V31c.1-4.5-4-5.2-6.5-5.2z" class="st0" fill="none"/><path id="path3717" d="M215 70.4c-1.3 0-2.2.9-2.4 2.4h4.8c-.3-1.5-1.1-2.4-2.4-2.4z" class="st0" fill="none"/><path id="path3719" d="M241 70.4c-1.3 0-2.2.9-2.4 2.4h4.8c-.2-1.5-1-2.4-2.4-2.4z" class="st0" fill="none"/><path id="path3721" d="M206.3 33.5c-4 0-7 3.3-7 7.8v.1c0 4.4 3 7.8 7 7.8 4.1 0 6.9-3.2 6.9-7.8v-.1c0-4.6-2.9-7.8-6.9-7.8z" class="st0" fill="none"/><path id="polygon3723" class="st0" fill="none" d="M122.8 28.1L117.6 40h10.3z"/><path id="path3725" d="M72.5 38.5c-.5-2.9-2.3-5.7-6-5.7-3.1 0-5.4 2.2-6.1 5.7v.3h12.1z" class="st0" fill="none"/><path id="path3727" d="M105.9 7.4H7.4v62.2h48.1l-5.4 12.3h22.5v17.9l18.7-30.2H78.1zM49.4 30.7c0 5.1-2.7 8.9-7.5 10.7l6.1 7.7c.6.7 1.1 1.5 1.1 2.7 0 2.1-1.8 3.5-3.6 3.5-1.4 0-2.6-.6-3.5-1.8L33.7 43h-6.8v12.4h-7.4V22.7c0-2.1 1.6-3.7 3.7-3.7h12.4c4.4 0 8 1.3 10.5 3.7 2.3 2 3.3 4.8 3.3 8zm24.1 24.6h-6.7c-8-.2-13.7-6.1-13.7-14.2V41c0-8.2 5.8-14.3 13.5-14.3 8.4 0 13 6.8 13.1 13.3v1c0 2-1.5 3.5-3.5 3.5H60.7v.2c1 2.8 3.4 4.5 6.5 4.5h9z" class="st0" fill="none"/><path id="path3729" d="M236.8 32.8c-3 0-5.4 2.2-6.1 5.7v.3h12.1v-.3c-.5-2.8-2.3-5.7-6-5.7z" class="st0" fill="none"/><path id="path3731" d="M267.1 49.1c3.4 0 7-2.9 7-7.8v-.1c0-4.4-3-7.8-7-7.8-4.1 0-6.9 3.2-6.9 7.8v.1c-.1 4.5 2.9 7.8 6.9 7.8z" class="st0" fill="none"/><path id="path3733" d="M263.4 70.5c-1.5 0-2.7 1.1-2.7 2.6s1.2 2.6 2.7 2.6c1.5 0 2.7-1.1 2.7-2.6 0-1.6-1.2-2.6-2.7-2.6z" class="st0" fill="none"/><path id="path3735" d="M95.9 62.2h-6.4L113.3 9c2.8-6.3-.8-9-5.1-9H7.7C3.5 0 0 3.5 0 7.7v61.6C0 73.6 3.5 77 7.7 77h36.5s-.9 1.9-2 4.6c-.2.5-3.5 7.7 5.1 7.7h17.9v15.4c0 3.5 2 6.4 5.3 6.4 2.5 0 4.4-1.7 5.5-3.1.8-.9 1.3-1.8 1.3-1.8l22.5-36.4c2.7-4.3.2-7.6-3.9-7.6zM72.6 99.8V81.9H50.1l5.4-12.3H7.4V7.4h98.5L78.1 69.6h13.1z" class="st1" fill="#0adebc"/><path id="path3737" d="M35.9 19H23.5c-2.1 0-3.7 1.6-3.7 3.7v32.6h7.4V42.9H34l8.3 10.5c.9 1.2 2.1 1.8 3.5 1.8 1.7 0 3.6-1.3 3.6-3.5 0-1.2-.6-2-1.1-2.7l-6.1-7.7c4.8-1.8 7.5-5.6 7.5-10.7v-.1c0-3.1-1.1-5.9-3.1-8-2.7-2.2-6.3-3.5-10.7-3.5zM42 31.1c0 3.2-2.5 5.2-6.5 5.2h-8.3V25.8h8.3c2.4 0 6.5.7 6.5 5.3z" fill="#fff"/><path id="path3739" d="M60.7 44.6v-.2h15.5c1.9 0 3.5-1.5 3.5-3.5v-1c-.1-6.5-4.7-13.3-13.1-13.3-7.7 0-13.5 6.1-13.5 14.3v.1c0 8.1 5.8 14.1 13.7 14.2h6.7l2.7-6.2h-9c-3.1.1-5.5-1.6-6.5-4.4zm-.3-6.1c.7-3.5 3-5.7 6.1-5.7 3.7 0 5.5 2.8 6 5.7v.3H60.4z" fill="#fff"/><path id="path3741" d="M83 106.9h-2.3c-.2 0-.4.2-.4.4s.2.4.4.4h.8v2.5c0 .2.2.4.4.4s.4-.2.4-.4v-2.5h.7c.2 0 .4-.2.4-.4 0-.3-.2-.4-.4-.4z" fill="#fff"/><path id="path3743" d="M87.2 106.8c-.2 0-.4.1-.4.2l-.9 1.5-.9-1.5c-.1-.1-.2-.2-.4-.2h-.1c-.2 0-.4.2-.4.4v2.8c0 .2.2.4.4.4s.4-.2.4-.4v-1.8l.7 1c.1.1.2.2.3.2.1 0 .2-.1.3-.2l.7-1.1v1.8c0 .2.2.4.4.4s.4-.2.4-.4v-2.8c-.2-.1-.3-.3-.5-.3z" fill="#fff"/></g></g><style id="style3713">.st0{fill:none}.st1{fill:#0adebc}</style></svg>