<svg id="Layer_1" xmlns="http://www.w3.org/2000/svg" viewBox="0 0 282.8 111.1"><style>.st0{fill:none}.st1{fill:#fff}</style><path class="st0" d="M35.4 25.8h-8.3v10.5h8.3c4 0 6.5-2 6.5-5.2V31c.1-4.5-4-5.2-6.5-5.2zM215 70.4c-1.3 0-2.2.9-2.4 2.4h4.8c-.3-1.5-1.1-2.4-2.4-2.4zM241 70.4c-1.3 0-2.2.9-2.4 2.4h4.8c-.2-1.5-1-2.4-2.4-2.4zM206.3 33.5c-4 0-7 3.3-7 7.8v.1c0 4.4 3 7.8 7 7.8 4.1 0 6.9-3.2 6.9-7.8v-.1c0-4.6-2.9-7.8-6.9-7.8zM117.6 40h10.3l-5.1-11.9zM72.5 38.5c-.5-2.9-2.3-5.7-6-5.7-3.1 0-5.4 2.2-6.1 5.7v.3h12.1v-.3z"/><path class="st0" d="M105.9 7.4H7.4v62.2h48.1l-5.4 12.3h22.5v17.9l18.7-30.2H78.1l27.8-62.2zM49.4 30.7c0 5.1-2.7 8.9-7.5 10.7l6.1 7.7c.6.7 1.1 1.5 1.1 2.7 0 2.1-1.8 3.5-3.6 3.5-1.4 0-2.6-.6-3.5-1.8L33.7 43h-6.8v12.4h-7.4V22.7c0-2.1 1.6-3.7 3.7-3.7h12.4c4.4 0 8 1.3 10.5 3.7 2.3 2 3.3 4.8 3.3 8zm24.1 24.6h-6.7c-8-.2-13.7-6.1-13.7-14.2V41c0-8.2 5.8-14.3 13.5-14.3 8.4 0 13 6.8 13.1 13.3v1c0 2-1.5 3.5-3.5 3.5H60.7v.2c1 2.8 3.4 4.5 6.5 4.5h9l-2.7 6.1zM236.8 32.8c-3 0-5.4 2.2-6.1 5.7v.3h12.1v-.3c-.5-2.8-2.3-5.7-6-5.7zM267.1 49.1c3.4 0 7-2.9 7-7.8v-.1c0-4.4-3-7.8-7-7.8-4.1 0-6.9 3.2-6.9 7.8v.1c-.1 4.5 2.9 7.8 6.9 7.8zM263.4 70.5c-1.5 0-2.7 1.1-2.7 2.6s1.2 2.6 2.7 2.6c1.5 0 2.7-1.1 2.7-2.6 0-1.6-1.2-2.6-2.7-2.6z"/><path class="st1" d="M95.9 62.2h-6.4L113.3 9c2.8-6.3-.8-9-5.1-9H7.7C3.5 0 0 3.5 0 7.7v61.6C0 73.6 3.5 77 7.7 77h36.5s-.9 1.9-2 4.6c-.2.5-3.5 7.7 5.1 7.7h17.9v15.4c0 3.5 2 6.4 5.3 6.4 2.5 0 4.4-1.7 5.5-3.1.8-.9 1.3-1.8 1.3-1.8l22.5-36.4c2.7-4.3.2-7.6-3.9-7.6zM72.6 99.8V81.9H50.1l5.4-12.3H7.4V7.4h98.5L78.1 69.6h13.1L72.6 99.8z"/><path d="M35.9 19H23.5c-2.1 0-3.7 1.6-3.7 3.7v32.6h7.4V42.9H34l8.3 10.5c.9 1.2 2.1 1.8 3.5 1.8 1.7 0 3.6-1.3 3.6-3.5 0-1.2-.6-2-1.1-2.7l-6.1-7.7c4.8-1.8 7.5-5.6 7.5-10.7v-.1c0-3.1-1.1-5.9-3.1-8-2.7-2.2-6.3-3.5-10.7-3.5zM42 31.1c0 3.2-2.5 5.2-6.5 5.2h-8.3V25.8h8.3c2.4 0 6.5.7 6.5 5.3zM60.7 44.6v-.2h15.5c1.9 0 3.5-1.5 3.5-3.5v-1c-.1-6.5-4.7-13.3-13.1-13.3-7.7 0-13.5 6.1-13.5 14.3v.1c0 8.1 5.8 14.1 13.7 14.2h6.7l2.7-6.2h-9c-3.1.1-5.5-1.6-6.5-4.4zm-.3-6.1c.7-3.5 3-5.7 6.1-5.7 3.7 0 5.5 2.8 6 5.7v.3H60.4v-.3zM175.9 27c-3.5 0-6.4 1.4-8.8 4.1-1.7-2.7-4.5-4.1-8-4.1-3.6 0-5.8 1.6-7.4 3.4-.2-1.8-1.7-3.2-3.6-3.2-2 0-3.6 1.6-3.6 3.7v24.4h7.3V39.6c0-3.6 2-5.9 5-5.9s4.7 2 4.7 5.8v15.8h7.2V39.6c0-3.7 1.9-5.9 5-5.9 3.9 0 4.7 3.2 4.7 5.8v15.8h7.2V37.7c.1-6.7-3.6-10.7-9.7-10.7zM127.2 21.3c-.8-1.9-2.3-2.9-4.2-2.9h-.3c-1.9 0-3.4 1-4.2 2.9l-12.9 28.8c-.3.6-.5 1.1-.5 1.7 0 1.9 1.5 3.5 3.5 3.5 1.6 0 2.8-.9 3.4-2.3l2.8-6.3h16.1l2.7 6.1c.7 1.6 1.9 2.5 3.6 2.5 2 0 3.5-1.6 3.5-3.6 0-.5-.1-1.1-.4-1.5l-13.1-28.9zM117.6 40l5.2-11.9L128 40h-10.4zM219.8 41.4c0-9.5-6.4-14.4-12.8-14.4h-1.2c-2.8.2-5.2 1.3-7.2 3-.4-1.6-1.8-2.8-3.5-2.8-2 0-3.7 1.6-3.6 3.7v32.3c0 2 1.7 3.6 3.7 3.6s3.6-1.6 3.6-3.6V52.5c1.8 1.5 4.1 2.6 6.5 2.9h.1c.2 0 .3 0 .5.1h2.2c5.9-.3 11.7-5.2 11.7-14.1zm-6.6 0c0 4.6-2.8 7.8-6.9 7.8-4 0-7-3.4-7-7.8v-.1c0-4.4 3-7.8 7-7.8s6.9 3.2 6.9 7.9zM249.9 41v-1c-.1-6.5-4.7-13.3-13.1-13.3-7.7 0-13.5 6.1-13.5 14.3v.1c0 8.1 5.8 14.1 13.7 14.2h6.7l2.7-6.2h-9c-3.1 0-5.5-1.7-6.5-4.5v-.2h15.5c2 .1 3.5-1.5 3.5-3.4zm-19.2-2.2v-.3c.7-3.5 3-5.7 6.1-5.7 3.7 0 5.5 2.8 6 5.7v.3h-12.1zM262.1 54.9c.1 0 .3.1.4.1.2 0 .3.1.5.1.8.2 1.7.4 2.7.4H267.6c2.5-.2 5-1.3 7.1-2.9v2.7h7.3V20.9c0-2-1.6-3.6-3.7-3.6-2 0-3.6 1.6-3.6 3.6V30c-2-1.6-4.4-2.7-7.1-2.9h-1.2-.7c-7.3.3-12.7 6.3-12.7 14.2v.1c0 6.3 3.7 11.6 9.1 13.5zm-2-13.6c0-4.6 2.9-7.8 6.9-7.8s7 3.3 7 7.8v.1c0 4.9-3.6 7.8-7 7.8-3.9-.1-6.9-3.4-6.9-7.9zM83 106.9h-2.3c-.2 0-.4.2-.4.4s.2.4.4.4h.8v2.5c0 .2.2.4.4.4s.4-.2.4-.4v-2.5h.7c.2 0 .4-.2.4-.4 0-.3-.2-.4-.4-.4zM87.2 106.8c-.2 0-.4.1-.4.2l-.9 1.5-.9-1.5c-.1-.1-.2-.2-.4-.2h-.1c-.2 0-.4.2-.4.4v2.8c0 .2.2.4.4.4s.4-.2.4-.4v-1.8l.7 1c.1.1.2.2.3.2.1 0 .2-.1.3-.2l.7-1.1v1.8c0 .2.2.4.4.4s.4-.2.4-.4v-2.8c-.2-.1-.3-.3-.5-.3zM241 67.8c-3.3 0-5.5 2.6-5.5 5.8 0 3.4 2.5 5.8 5.8 5.8 2 0 3.5-.8 4.6-2.1l-1.8-1.6c-.9.8-1.6 1.1-2.7 1.1-1.4 0-2.4-.8-2.7-2.2h7.8v-.8c0-3.1-1.7-6-5.5-6zm-2.4 5c.2-1.4 1.1-2.4 2.4-2.4 1.3 0 2.2 1 2.4 2.4h-4.8zM252.2 70.3V68H249v11.2h3.2v-4.1c0-2.7 1.3-3.9 3.4-3.9h.2v-3.3c-1.9-.2-2.9.8-3.6 2.4zM229.4 67.8c-1.6 0-2.5.9-3.3 1.8V68H223v11.2h3.2V73c0-1.5.8-2.3 2-2.3s1.9.8 1.9 2.3v6.2h3.2V72c-.1-2.6-1.5-4.2-3.9-4.2zM215 67.8c-3.3 0-5.5 2.6-5.5 5.8 0 3.4 2.5 5.8 5.8 5.8 2 0 3.5-.8 4.6-2.1l-1.8-1.6c-.9.8-1.6 1.1-2.7 1.1-1.4 0-2.4-.8-2.7-2.2h7.8v-.8c-.1-3.1-1.8-6-5.5-6zm-2.5 5c.3-1.4 1.1-2.4 2.4-2.4 1.3 0 2.2 1 2.4 2.4h-4.8zM279.5 68l-2.4 7.6-2.5-7.6h-3.4l4.4 11.2c-.3.6-.6.7-1.1.7-.4 0-.9-.2-1.4-.4l-1.1 2.3c.8.5 1.7.8 2.8.8 1.9 0 2.8-.9 3.7-3.1l4.3-11.5h-3.3zM266 69.5c-.9-.9-1.9-1.7-3.6-1.7-2.6 0-5 1.9-5 5.2 0 3.3 2.4 5.2 5 5.2 1.7 0 2.7-.7 3.7-1.8v.6c0 2-1 3-3.2 3-1.5 0-2.6-.4-3.8-1l-1.1 2.4c1.4.8 3.1 1.2 4.9 1.2 2.2 0 3.8-.5 4.8-1.5.9-.9 1.4-2.4 1.4-4.4V68H266v1.5zm.1 3.6c0 1.5-1.2 2.6-2.7 2.6-1.5 0-2.7-1-2.7-2.6 0-1.5 1.2-2.6 2.7-2.6 1.5 0 2.7 1 2.7 2.6z"/></svg>